<svg xmlns="http://www.w3.org/2000/svg" viewBox="0 0 32 32">
  <rect width="32" height="32" rx="6" fill="#E8F0F5"/>
  <path d="M16 10l6-3.5-6-3.5-6 3.5 6 3.5z" fill="none" stroke="#7FABC8" stroke-width="1.5" stroke-linecap="round" stroke-linejoin="round"/>
  <path d="M16 10l4.5-2.5c.3 1.5.5 3 .3 4.5-.5 1.5-1.5 2.8-2.8 3.8-1 .7-2.2 1.2-3.5 1.2s-2.5-.5-3.5-1.2c-1.3-1-2.3-2.3-2.8-3.8-.2-1.5 0-3 .3-4.5L16 10z" fill="none" stroke="#7FABC8" stroke-width="1.5" stroke-linecap="round" stroke-linejoin="round"/>
  <path d="M16 10v9" fill="none" stroke="#7FABC8" stroke-width="1.5" stroke-linecap="round" stroke-linejoin="round"/>
  <path d="M10 22h12M12 26h8" fill="none" stroke="#A6BEA4" stroke-width="1.5" stroke-linecap="round" stroke-linejoin="round"/>
</svg>
